<svg width="49" height="49" viewBox="0 0 49 49" fill="none" xmlns="http://www.w3.org/2000/svg">
<path d="M24.5 8.16671V4.08337" stroke="#FFD9E2" stroke-width="1.5" stroke-linecap="round" stroke-linejoin="round"/>
<path d="M40.8334 44.9167C40.8334 35.896 33.5207 28.5834 24.5 28.5834C15.4794 28.5834 8.16669 35.896 8.16669 44.9167" stroke="#FFD9E2" stroke-width="1.5" stroke-linecap="round" stroke-linejoin="round"/>
<path d="M19.1406 16.8438H18.8854M19.3958 16.8438C19.3958 17.1257 19.1673 17.3542 18.8854 17.3542C18.6035 17.3542 18.375 17.1257 18.375 16.8438C18.375 16.5619 18.6035 16.3334 18.8854 16.3334C19.1673 16.3334 19.3958 16.5619 19.3958 16.8438Z" stroke="#FFD9E2" stroke-width="1.5" stroke-linecap="round" stroke-linejoin="round"/>
<path d="M30.3698 16.8438H30.1146M30.625 16.8438C30.625 17.1257 30.3966 17.3542 30.1146 17.3542C29.8326 17.3542 29.6042 17.1257 29.6042 16.8438C29.6042 16.5619 29.8326 16.3334 30.1146 16.3334C30.3966 16.3334 30.625 16.5619 30.625 16.8438Z" stroke="#FFD9E2" stroke-width="1.5" stroke-linecap="round" stroke-linejoin="round"/>
<path d="M30.939 8.16663H18.0609C15.4982 8.16663 14.2168 8.16663 13.2177 8.6163C12.0804 9.12815 11.1698 10.0387 10.658 11.176C10.2083 12.1751 10.2083 13.4565 10.2083 16.0192C10.2083 20.1195 10.2083 22.1696 10.9278 23.7684C11.7468 25.588 13.2036 27.0449 15.0233 27.8638C16.6219 28.5833 18.6721 28.5833 22.7723 28.5833H26.2276C30.3279 28.5833 32.378 28.5833 33.9768 27.8638C35.7963 27.0449 37.2533 25.588 38.0722 23.7684C38.7916 22.1696 38.7916 20.1195 38.7916 16.0192C38.7916 13.4565 38.7916 12.1751 38.3419 11.176C37.83 10.0387 36.9196 9.12815 35.7822 8.6163C34.7832 8.16663 33.5019 8.16663 30.939 8.16663Z" stroke="#FFD9E2" stroke-width="1.5" stroke-linecap="round" stroke-linejoin="round"/>
</svg>
