<svg width="152" height="152" viewBox="0 0 152 152" fill="none" xmlns="http://www.w3.org/2000/svg">
<path d="M76 19C57.3203 19 41.7764 32.3725 38.4904 50.0308C37.9411 52.9827 37.6664 54.4586 38.6897 56.4004C39.713 58.342 41.1612 58.9875 44.0576 60.2783C52.7889 64.17 63.9014 66.5 76 66.5C88.0986 66.5 99.211 64.17 107.942 60.2783C110.839 58.9875 112.287 58.342 113.31 56.4004C114.334 54.4586 114.059 52.9827 113.51 50.0308C110.223 32.3725 94.6795 19 76 19Z" stroke="#FFD9E2" stroke-width="1.5" stroke-linecap="round" stroke-linejoin="round"/>
<path d="M107.667 34.8334C126.597 39.821 139.333 49.1433 139.333 59.8205C139.333 75.7518 110.978 88.6667 76 88.6667C41.0219 88.6667 12.6667 75.7518 12.6667 59.8205C12.6667 49.1433 25.4029 39.821 44.3333 34.8334" stroke="#FFD9E2" stroke-width="1.5"/>
<path d="M76 114V133" stroke="#FFD9E2" stroke-width="1.5" stroke-linecap="round" stroke-linejoin="round"/>
<path d="M107.667 107.667L114 133" stroke="#FFD9E2" stroke-width="1.5" stroke-linecap="round" stroke-linejoin="round"/>
<path d="M44.3333 107.667L38 133" stroke="#FFD9E2" stroke-width="1.5" stroke-linecap="round" stroke-linejoin="round"/>
</svg>
