<svg width="60" height="59" viewBox="0 0 60 59" fill="none" xmlns="http://www.w3.org/2000/svg">
<path d="M5.48096 31.3201C17.1636 31.3201 28.8463 19.5751 28.8463 7.83008C28.8463 19.5751 40.529 31.3201 52.2117 31.3201C40.529 31.3201 28.8463 43.0651 28.8463 54.8101C28.8463 43.0651 17.1636 31.3201 5.48096 31.3201Z" stroke="#551C31" stroke-width="1.5" stroke-linejoin="round"/>
<path d="M2.88477 50.8951C5.04822 50.8951 9.37515 46.545 9.37515 44.3701C9.37515 46.545 13.7021 50.8951 15.8655 50.8951C13.7021 50.8951 9.37515 55.2452 9.37515 57.4201C9.37515 55.2452 5.04822 50.8951 2.88477 50.8951Z" stroke="#551C31" stroke-width="1.5" stroke-linejoin="round"/>
<path d="M39.231 13.05C41.8271 13.05 47.0194 7.82997 47.0194 5.21997C47.0194 7.82997 52.2117 13.05 54.8079 13.05C52.2117 13.05 47.0194 18.27 47.0194 20.88C47.0194 18.27 41.8271 13.05 39.231 13.05Z" stroke="#551C31" stroke-width="1.5" stroke-linejoin="round"/>
</svg>
